<svg width="70" height="70" viewBox="0 0 70 70" xmlns="http://www.w3.org/2000/svg"><g fill="none" fill-rule="evenodd"><g><g><g><g><g transform="translate(0 0)"><circle fill="#E1011C" cx="35" cy="35" r="35"/><path d="M19.557 18.505V30.41c1.812-2.16 3.985-3.25 6.505-3.25 1.298 0 2.46.248 3.503.74 1.046.49 1.828 1.117 2.355 1.877.53.77.89 1.61 1.083 2.538.193.923.29 2.36.29 4.307v12.73H27.66V37.89c0-2.276-.102-3.717-.316-4.33-.214-.615-.59-1.1-1.13-1.457-.543-.365-1.22-.546-2.034-.546-.932 0-1.77.234-2.498.697-.742.467-1.278 1.165-1.615 2.097-.345.933-.516 2.31-.51 4.135l-.006 10.87h-5.624V18.506h5.63" fill="#fff"/><path d="M41.734 18.505V30.41c1.813-2.16 3.984-3.25 6.504-3.25 1.293 0 2.463.248 3.508.74 1.04.49 1.823 1.117 2.35 1.877.53.77.89 1.61 1.082 2.538.193.923.29 2.36.29 4.307v12.73H49.84V37.89c0-2.276-.104-3.717-.32-4.33-.214-.615-.59-1.1-1.132-1.457-.537-.365-1.218-.546-2.033-.546-.932 0-1.77.234-2.498.697-.734.467-1.27 1.165-1.614 2.097-.338.933-.51 2.31-.51 4.135v10.87H36.11V18.506h5.626" fill="#fff"/></g></g></g></g></g></g></svg>
