<svg xmlns="http://www.w3.org/2000/svg" width="75" height="75" viewBox="0 0 75 75" fill="none">
    <path d="M40.5478 66.2109H34.4521C33.6431 66.2109 32.9873 66.8669 32.9873 67.6758C32.9873 68.4847 33.6431 69.1406 34.4521 69.1406H40.5478C41.3568 69.1406 42.0126 68.4847 42.0126 67.6758C42.0126 66.8669 41.3568 66.2109 40.5478 66.2109Z" fill="black"/>
    <path d="M66.7969 11.7189H58.0078V8.53711C59.7127 7.93242 60.9375 6.30425 60.9375 4.39453C60.9375 1.97139 58.9661 0 56.543 0H18.457C16.0339 0 14.0625 1.97139 14.0625 4.39468C14.0625 6.30425 15.2873 7.93242 16.9922 8.53711V11.7189H8.20312C7.39409 11.7189 6.73828 12.3749 6.73828 13.1837V23.4376C6.73828 29.8994 11.9953 35.1564 18.457 35.1564H19.6956C19.9771 35.6471 20.278 36.1291 20.6019 36.5991C22.6753 39.6088 25.4738 41.9884 28.742 43.5413C28.7222 43.7101 28.7109 43.8814 28.7109 44.0555C28.7109 46.1079 30.1255 47.8358 32.0307 48.3166C30.2706 54.1811 27.1427 60.3516 23.4375 60.3516H19.9219C19.1832 60.3516 18.56 60.9016 18.4683 61.6348L17.0035 73.3535C16.9513 73.7704 17.0808 74.1897 17.3588 74.5046C17.6369 74.8195 18.0369 75 18.457 75H56.543C56.9631 75 57.3631 74.8197 57.6412 74.5046C57.9192 74.1897 58.0487 73.7703 57.9965 73.3535L56.5317 61.6348C56.4401 60.9016 55.817 60.3516 55.0781 60.3516H51.5625C49.32 60.3516 47.4252 57.9968 46.2306 56.0212C44.6955 53.4826 43.6233 50.4923 42.9696 48.3163C44.8748 47.8355 46.2891 46.1076 46.2891 44.0553C46.2891 43.8813 46.2778 43.7101 46.258 43.5412C49.5268 41.9881 52.3255 39.6079 54.3992 36.5977C54.7226 36.128 55.0232 35.6467 55.3044 35.1564H56.543C63.0047 35.1564 68.2617 29.8994 68.2617 23.4376V13.1837C68.2617 12.3749 67.6059 11.7189 66.7969 11.7189ZM9.66797 23.4376V14.6486H16.9922V25.0124C16.9922 27.4997 17.4434 29.9333 18.3101 32.223C13.5315 32.1439 9.66797 28.2347 9.66797 23.4376ZM54.8836 72.0703H20.1164L21.215 63.2812H53.785L54.8836 72.0703ZM45.7878 60.3516H29.2124C29.9241 59.5714 30.6105 58.637 31.2697 57.5483C33.1421 54.456 34.3712 50.8128 35.0435 48.4499H39.9567C40.6295 50.8153 41.8562 54.4493 43.7237 57.5373C44.3849 58.6307 45.0735 59.5687 45.7878 60.3516ZM41.8945 45.5202H33.1055C32.2978 45.5202 31.6406 44.863 31.6406 44.0553C31.6406 43.2476 32.2978 42.5905 33.1055 42.5905H41.8945C42.7022 42.5905 43.3594 43.2476 43.3594 44.0553C43.3594 44.863 42.7022 45.5202 41.8945 45.5202ZM44.9631 40.9137C44.1705 40.1394 43.0875 39.6608 41.8945 39.6608H33.1055C31.9125 39.6608 30.8297 40.1394 30.0369 40.9137C23.8611 38.0057 19.9219 31.8693 19.9219 25.0124V8.78906H30.9078C31.7168 8.78906 32.3726 8.13311 32.3726 7.32422C32.3726 6.51533 31.7168 5.85938 30.9078 5.85938H18.457C17.6493 5.85938 16.9922 5.20225 16.9922 4.39453C16.9922 3.58682 17.6493 2.92969 18.457 2.92969H56.543C57.3507 2.92969 58.0078 3.58682 58.0078 4.39468C58.0078 5.20239 57.3507 5.85938 56.543 5.85938H44.0914C43.2823 5.85938 42.6265 6.51533 42.6265 7.32422C42.6265 8.13311 43.2823 8.78906 44.0914 8.78906H55.0781V25.0124C55.0781 31.869 51.1387 38.0057 44.9631 40.9137ZM65.332 23.4376C65.332 28.2347 61.4685 32.1439 56.6899 32.223C57.5566 29.9335 58.0078 27.4997 58.0078 25.0124V14.6486H65.332V23.4376Z" fill="black"/>
    <path d="M44.984 19.1015L41.6987 18.5195L40.0671 15.5182C40.0671 15.5181 40.067 15.5178 40.0668 15.5176C39.7931 15.0144 39.3807 14.6059 38.8746 14.3361C38.1854 13.9685 37.3944 13.8915 36.6473 14.1187C35.9001 14.3462 35.2862 14.851 34.9183 15.5406L33.3498 18.4851L30.0549 19.0976C29.4646 19.1923 28.9248 19.4616 28.4922 19.8774C27.929 20.4193 27.6105 21.1479 27.5953 21.9294C27.5801 22.7107 27.8701 23.4514 28.4131 24.0155L30.7305 26.4191L30.3054 29.6605C30.1913 30.2791 30.2764 30.9039 30.5528 31.4715C30.8953 32.1749 31.4912 32.7027 32.2308 32.9578C32.5438 33.0657 32.8668 33.1195 33.1885 33.1195C33.6266 33.1195 34.0626 33.0199 34.4681 32.8226L37.4659 31.3633L40.5513 32.8332C41.0663 33.079 41.6408 33.1672 42.2125 33.088C42.9869 32.9811 43.673 32.5787 44.1448 31.9555C44.6165 31.3324 44.8173 30.5626 44.7099 29.7864L44.2479 26.4804L46.5135 24.0908C46.9614 23.658 47.2544 23.1055 47.3619 22.4895C47.6393 20.8987 46.5712 19.3787 44.984 19.1015ZM44.4132 22.0477L41.6364 24.9766C41.3297 25.3 41.187 25.7456 41.2487 26.1871L41.8119 30.1886L38.0887 28.415C37.6862 28.2234 37.2184 28.2251 36.8175 28.4204L33.1866 30.1902C33.1938 30.1555 33.1996 30.1205 33.2042 30.0855L33.7268 26.1008C33.7848 25.6587 33.6384 25.2144 33.329 24.8936L30.5197 21.99C30.5363 21.9875 30.5528 21.9848 30.5692 21.9817L34.5782 21.2367C35.0165 21.1551 35.3938 20.8787 35.6035 20.4852L37.4959 16.9231L39.4614 20.5388C39.6743 20.9304 40.0539 21.2039 40.493 21.2815L44.4767 21.9845C44.4551 22.0048 44.4337 22.0259 44.4132 22.0477Z" fill="black"/>
    <path d="M37.4995 8.78906C38.3085 8.78906 38.9643 8.13311 38.9643 7.32422C38.9643 6.51533 38.3085 5.85938 37.4995 5.85938H37.4984C36.6894 5.85938 36.0342 6.51533 36.0342 7.32422C36.0342 8.13311 36.6904 8.78906 37.4995 8.78906Z" fill="black"/>
    </svg>