<svg xmlns="http://www.w3.org/2000/svg" width="75" height="75" viewBox="0 0 75 75" fill="none">
    <path d="M50.6836 0C49.8747 0 49.2188 0.655957 49.2188 1.46484V8.20312C49.2188 9.01201 49.8747 9.66797 50.6836 9.66797C51.4925 9.66797 52.1484 9.01201 52.1484 8.20312V1.46484C52.1484 0.655957 51.4925 0 50.6836 0Z" fill="black"/>
    <path d="M16.9922 45.7031C16.1836 45.7031 15.5273 46.3594 15.5273 47.168C15.5273 47.9766 16.1836 48.6328 16.9922 48.6328C17.8008 48.6328 18.457 47.9766 18.457 47.168C18.457 46.3594 17.8008 45.7031 16.9922 45.7031Z" fill="black"/>
    <path d="M71.1914 42.7734C71.1914 39.5426 68.5629 36.9141 65.332 36.9141H54.3967C56.0896 32.5777 56.7749 27.4736 56.6427 22.9301C56.6175 22.063 56.5843 21.5616 56.5393 21.2459C56.4636 18.0809 53.8646 15.5273 50.6836 15.5273C47.4527 15.5273 44.8242 18.1559 44.8242 21.3867V22.8516C44.8242 32.1161 32.9276 37.3214 23.9496 39.5536C23.2708 38.0017 21.7213 36.9141 19.9219 36.9141H5.27344C4.46455 36.9141 3.80859 37.57 3.80859 38.3789V73.5352C3.80859 74.344 4.46455 75 5.27344 75H19.9219C21.7093 75 23.2499 73.9267 23.9357 72.3913C24.6791 72.582 25.3692 72.7622 26.0062 72.9286C31.1208 74.2644 33.9381 75 40.79 75H56.543C59.7738 75 62.4023 72.3715 62.4023 69.1406C62.4023 67.9359 62.0366 66.8153 61.4106 65.8831C63.6735 65.0916 65.332 62.9295 65.332 60.3516C65.332 59.1513 64.9752 58.027 64.3512 57.0905C66.6041 56.2978 68.2617 54.1406 68.2617 51.5625C68.2617 50.3578 67.896 49.2372 67.27 48.305C69.5329 47.5135 71.1914 45.3514 71.1914 42.7734ZM21.3867 70.6055C21.3867 71.4132 20.7296 72.0703 19.9219 72.0703H6.73828V39.8438H19.9219C20.7296 39.8438 21.3867 40.5009 21.3867 41.3086V70.6055ZM65.332 45.7031C62.1901 45.7031 61.4411 45.7031 58.0078 45.7031C57.1989 45.7031 56.543 46.3591 56.543 47.168C56.543 47.9769 57.1989 48.6328 58.0078 48.6328H62.4023C64.0178 48.6328 65.332 49.9471 65.332 51.5625C65.332 53.1806 64.0204 54.4922 62.4023 54.4922H55.0781C54.2692 54.4922 53.6133 55.1481 53.6133 55.957C53.6133 56.7659 54.2692 57.4219 55.0781 57.4219H59.4727C61.0689 57.4219 62.4023 58.697 62.4023 60.3516C62.4023 61.9696 61.0907 63.2812 59.4727 63.2812C56.3307 63.2812 55.5817 63.2812 52.1484 63.2812C51.3396 63.2812 50.6836 63.9372 50.6836 64.7461C50.6836 65.555 51.3396 66.2109 52.1484 66.2109H56.543C58.1584 66.2109 59.4727 67.5252 59.4727 69.1406C59.4727 70.7561 58.1584 72.0703 56.543 72.0703H40.79C34.3144 72.0703 31.7852 71.4098 26.7466 70.0939C26.0084 69.9012 25.1988 69.6898 24.3164 69.4648V42.4841C34.9172 39.959 47.7539 33.7956 47.7539 22.8516V21.3867C47.7539 19.7713 49.0682 18.457 50.6836 18.457C52.2961 18.457 53.6102 19.7692 53.6133 21.3822V21.3867C53.6133 22.0233 54.4078 29.8364 51.2218 36.9141H46.2891C45.4802 36.9141 44.8242 37.57 44.8242 38.3789C44.8242 39.1878 45.4802 39.8438 46.2891 39.8438C47.312 39.8438 63.6624 39.8438 65.332 39.8438C66.9475 39.8438 68.2617 41.158 68.2617 42.7734C68.2617 44.3915 66.9501 45.7031 65.332 45.7031Z" fill="black"/>
    <path d="M16.9922 51.5625C16.1833 51.5625 15.5273 52.2185 15.5273 53.0273V64.7461C15.5273 65.555 16.1833 66.2109 16.9922 66.2109C17.8011 66.2109 18.457 65.555 18.457 64.7461V53.0273C18.457 52.2185 17.8011 51.5625 16.9922 51.5625Z" fill="black"/>
    <path d="M38.9648 18.457H33.1055C32.2966 18.457 31.6406 19.113 31.6406 19.9219C31.6406 20.7308 32.2966 21.3867 33.1055 21.3867H38.9648C39.7737 21.3867 40.4297 20.7308 40.4297 19.9219C40.4297 19.113 39.7737 18.457 38.9648 18.457Z" fill="black"/>
    <path d="M68.2617 18.457H62.4023C61.5935 18.457 60.9375 19.113 60.9375 19.9219C60.9375 20.7308 61.5935 21.3867 62.4023 21.3867H68.2617C69.0706 21.3867 69.7266 20.7308 69.7266 19.9219C69.7266 19.113 69.0706 18.457 68.2617 18.457Z" fill="black"/>
    <path d="M64.149 6.45674C63.5769 5.88486 62.6496 5.88486 62.0773 6.45674L57.9349 10.5992C57.3629 11.1712 57.3629 12.0987 57.9349 12.6709C58.5072 13.2429 59.4343 13.2428 60.0066 12.6709L64.149 8.52847C64.7211 7.95644 64.7211 7.02891 64.149 6.45674Z" fill="black"/>
    <path d="M43.4332 10.5992L39.2908 6.45674C38.7186 5.88486 37.7914 5.88486 37.2191 6.45674C36.647 7.02876 36.647 7.9563 37.2191 8.52847L41.3615 12.6709C41.934 13.2429 42.8611 13.2428 43.4332 12.6709C44.0052 12.0989 44.0052 11.1713 43.4332 10.5992Z" fill="black"/>
    </svg>